<svg width="14" height="16" viewBox="0 0 14 16" fill="none" xmlns="http://www.w3.org/2000/svg">
<path d="M9.49914 0.970638C9.48292 0.694972 9.24631 0.484646 8.97064 0.500862L4.4784 0.765111C4.20274 0.781327 3.99241 1.01794 4.00863 1.29361C4.02484 1.56928 4.26146 1.7796 4.53713 1.76339L8.53022 1.5285L8.76511 5.52159C8.78133 5.79726 9.01794 6.00759 9.29361 5.99137C9.56928 5.97516 9.7796 5.73854 9.76339 5.46287L9.49914 0.970638ZM1.3737 10.3322L9.3737 1.33218L8.6263 0.667817L0.626295 9.66782L1.3737 10.3322Z" fill="white"/>
<path d="M4.50086 15.0294C4.51708 15.305 4.75369 15.5154 5.02936 15.4991L9.5216 15.2349C9.79726 15.2187 10.0076 14.9821 9.99137 14.7064C9.97516 14.4307 9.73854 14.2204 9.46287 14.2366L5.46978 14.4715L5.23489 10.4784C5.21867 10.2027 4.98206 9.99241 4.70639 10.0086C4.43072 10.0248 4.2204 10.2615 4.23661 10.5371L4.50086 15.0294ZM12.6263 5.66782L4.6263 14.6678L5.3737 15.3322L13.3737 6.33218L12.6263 5.66782Z" fill="white"/>
</svg>
