<svg width="12" height="14" viewBox="0 0 12 14" fill="none" xmlns="http://www.w3.org/2000/svg">
<path d="M8.1658 0.970638C8.14959 0.694973 7.91297 0.484647 7.63731 0.500862L3.14507 0.765112C2.8694 0.781327 2.65908 1.01794 2.67529 1.29361C2.69151 1.56928 2.92813 1.7796 3.20379 1.76339L7.19689 1.5285L7.43178 5.5216C7.44799 5.79726 7.68461 6.00759 7.96028 5.99137C8.23594 5.97516 8.44627 5.73854 8.43005 5.46287L8.1658 0.970638ZM1.3737 8.83218L8.04037 1.33218L7.29296 0.667818L0.626295 8.16782L1.3737 8.83218Z" fill="#5F5F5F"/>
<path d="M3.8342 12.696C3.85041 12.9717 4.08703 13.182 4.36269 13.1658L8.85493 12.9016C9.1306 12.8853 9.34092 12.6487 9.32471 12.3731C9.30849 12.0974 9.07187 11.8871 8.79621 11.9033L4.80311 12.1382L4.56822 8.14508C4.55201 7.86941 4.31539 7.65908 4.03972 7.6753C3.76406 7.69152 3.55373 7.92813 3.56995 8.2038L3.8342 12.696ZM10.6263 4.83449L3.95963 12.3345L4.70704 12.9989L11.3737 5.49885L10.6263 4.83449Z" fill="#5F5F5F"/>
</svg>
