<svg width="20" height="20" viewBox="0 0 20 20" fill="none" xmlns="http://www.w3.org/2000/svg">
<path d="M11.3932 11.7911C10.9786 12.0472 10.4969 12.1825 10.0003 12.1825C9.50379 12.1825 9.02215 12.0472 8.6075 11.7911L1.77796 7.57292C1.74007 7.54952 1.70316 7.52512 1.66699 7.50003V14.4119C1.66699 15.2044 2.36117 15.8333 3.20127 15.8333H16.7994C17.6548 15.8333 18.3337 15.1902 18.3337 14.4119V7.5C18.2974 7.52515 18.2605 7.54961 18.2225 7.57304L11.3932 11.7911Z" fill="#C2C2C2"/>
<path d="M2.31966 6.89653L9.14919 11.4104C9.40772 11.5813 9.704 11.6667 10.0003 11.6667C10.2966 11.6667 10.5929 11.5812 10.8515 11.4104L17.681 6.89653C18.0897 6.62658 18.3337 6.17479 18.3337 5.68718C18.3337 4.84875 17.6456 4.16667 16.7999 4.16667H3.20075C2.35505 4.1667 1.66699 4.84878 1.66699 5.68798C1.66699 6.17479 1.911 6.62658 2.31966 6.89653Z" fill="#C2C2C2"/>
</svg>
