<?xml version="1.0" standalone="no"?>
<!DOCTYPE svg PUBLIC "-//W3C//DTD SVG 20010904//EN"
 "http://www.w3.org/TR/2001/REC-SVG-20010904/DTD/svg10.dtd">
<svg version="1.0" xmlns="http://www.w3.org/2000/svg"
 width="715.000000pt" height="656.000000pt" viewBox="0 0 715.000000 656.000000"
 preserveAspectRatio="xMidYMid meet">
<metadata>
Created by potrace 1.16, written by Peter Selinger 2001-2019
</metadata>
<g transform="translate(0.000000,656.000000) scale(0.100000,-0.100000)"
fill="#5f5f5f" stroke="none">
<path d="M3275 5773 c-118 -14 -254 -39 -353 -63 -64 -16 -120 -26 -124 -24
-5 3 -8 1 -8 -4 0 -11 -70 -33 -82 -26 -4 3 -8 0 -8 -6 0 -7 -7 -10 -15 -6 -8
3 -15 1 -15 -3 0 -12 -60 -32 -71 -25 -5 3 -9 1 -9 -4 0 -13 -50 -33 -62 -26
-7 5 -8 2 -3 -6 6 -10 4 -12 -8 -7 -9 3 -17 3 -19 -2 -2 -4 -52 -33 -113 -65
-289 -152 -557 -371 -755 -618 -43 -53 -80 -95 -82 -92 -3 2 -5 -2 -5 -9 -1
-6 -31 -57 -67 -112 -37 -55 -97 -161 -134 -235 -37 -74 -69 -137 -72 -140 -3
-3 -5 -9 -5 -15 0 -13 -47 -138 -54 -145 -3 -3 -7 -12 -7 -20 -1 -8 -16 -67
-33 -130 -60 -224 -75 -348 -75 -615 0 -267 16 -394 75 -615 17 -63 32 -122
33 -130 0 -8 3 -17 6 -20 3 -3 23 -50 45 -105 149 -383 397 -723 730 -1001
144 -119 422 -284 598 -354 31 -12 57 -27 57 -32 0 -5 4 -7 9 -4 5 3 42 -6 82
-19 160 -55 400 -108 534 -119 65 -6 435 -6 500 0 134 11 373 64 536 119 39
14 75 22 80 19 5 -3 9 -1 9 5 0 5 10 13 23 17 45 13 284 132 352 174 39 24 76
43 83 43 6 0 10 3 7 5 -3 3 19 21 48 40 141 95 359 295 484 444 102 123 229
320 306 478 40 80 75 147 79 148 5 2 6 7 3 12 -7 11 15 70 27 70 5 0 7 4 4 8
-7 11 15 82 25 82 5 0 6 7 3 15 -4 8 -1 15 6 15 6 0 9 4 5 9 -7 13 17 101 28
101 4 0 6 4 3 9 -3 5 3 48 14 97 11 49 22 105 24 124 2 19 9 84 15 144 23 214
14 418 -30 656 -12 63 -22 124 -23 135 0 11 -3 22 -6 25 -11 10 -31 91 -25
100 3 6 2 10 -3 10 -10 0 -43 100 -36 112 3 4 1 8 -4 8 -12 0 -34 59 -26 71 3
5 1 9 -4 9 -12 0 -34 49 -27 60 3 5 1 10 -3 12 -5 1 -36 57 -71 123 -203 389
-516 726 -877 947 -46 28 -84 56 -84 61 0 6 -3 8 -6 4 -4 -3 -45 13 -93 37
-47 24 -129 60 -181 82 -52 21 -97 41 -100 44 -3 3 -9 5 -15 5 -27 1 -75 18
-75 26 0 6 -3 8 -8 5 -4 -2 -61 9 -127 25 -66 16 -128 29 -137 29 -10 0 -18 5
-18 11 0 6 -7 9 -15 6 -8 -4 -63 0 -122 8 -98 13 -455 19 -538 8z m505 -174
c47 -6 90 -16 95 -21 7 -8 5 -9 -7 -5 -24 9 -34 -15 -42 -98 -3 -38 -26 -178
-50 -310 -81 -435 -125 -712 -121 -746 2 -19 7 -70 10 -114 3 -44 8 -102 10
-130 3 -27 8 -88 11 -135 4 -47 8 -87 10 -89 2 -2 178 169 391 380 577 572
693 688 750 751 l51 56 -44 32 c-24 17 -44 33 -44 36 0 5 89 -54 100 -66 3 -3
28 -23 55 -45 64 -50 248 -231 275 -270 12 -16 -7 1 -42 38 -47 50 -68 66 -81
61 -9 -3 -17 -11 -17 -16 0 -6 -11 -19 -25 -30 -14 -11 -23 -24 -19 -29 3 -5
-3 -12 -13 -16 -18 -6 -103 -88 -103 -98 0 -3 -11 -16 -25 -28 l-25 -22 145
-182 c80 -101 145 -189 145 -195 0 -13 -70 -61 -122 -85 -16 -6 -28 -15 -28
-19 0 -12 563 4 570 16 12 19 83 -187 119 -340 31 -134 34 -160 19 -165 -15
-6 -1017 50 -1023 57 -3 2 91 15 208 27 116 13 219 25 227 26 8 2 73 9 144 16
82 9 120 16 105 20 -13 4 -185 20 -381 35 l-357 27 -77 -59 c-43 -32 -146
-113 -229 -179 -84 -66 -180 -141 -214 -168 l-62 -48 39 -47 c21 -26 155 -193
297 -372 143 -179 264 -330 269 -336 6 -6 56 -68 111 -139 96 -123 219 -278
240 -302 6 -6 60 -74 120 -152 61 -77 113 -140 117 -141 4 0 40 46 79 103 40
56 77 107 82 112 14 15 -13 -35 -37 -69 -191 -269 -444 -514 -656 -633 l-25
-15 25 19 c13 10 59 43 101 73 95 67 208 162 206 172 -1 4 -56 63 -122 130
-66 68 -296 303 -510 523 -588 604 -728 745 -740 745 -5 0 -17 -5 -25 -10 -12
-8 -11 -13 8 -33 12 -13 22 -27 22 -33 0 -13 243 -254 256 -254 22 0 66 -44
84 -84 12 -27 101 -125 266 -295 137 -140 250 -260 252 -267 2 -8 10 -14 18
-14 8 0 14 -5 14 -12 0 -6 7 -20 17 -30 15 -17 13 -18 -76 -18 -54 0 -99 -5
-111 -12 -17 -11 -31 0 -137 101 -65 63 -133 129 -151 148 -19 19 -36 33 -38
30 -13 -12 42 -97 311 -481 262 -373 292 -413 310 -404 14 6 12 3 -5 -11 -25
-20 -200 -110 -294 -152 -78 -33 -127 -49 -137 -43 -5 3 -9 1 -9 -4 0 -20
-392 -115 -459 -111 -28 1 35 17 100 24 l62 7 -7 82 c-3 44 -8 97 -11 116 -8
65 -24 205 -30 260 -3 30 -10 89 -15 130 -12 98 -16 138 -35 305 -9 77 -18
156 -20 175 -2 19 -9 79 -16 132 -7 58 -17 102 -25 109 -8 6 -14 16 -14 21 0
5 -24 37 -54 73 -30 35 -60 74 -67 87 -7 13 -35 51 -63 84 -28 34 -62 77 -76
95 -46 61 -82 99 -94 99 -6 -1 -24 -11 -39 -24 l-29 -23 41 -194 c23 -107 106
-498 185 -869 138 -655 143 -675 167 -680 24 -6 24 -6 -5 -14 -45 -11 -381 -9
-486 4 -100 12 -255 43 -305 60 -39 13 -10 9 104 -15 97 -20 95 -21 105 68 3
34 27 190 52 347 26 157 47 299 47 315 1 17 -38 158 -87 315 -117 381 -126
410 -136 410 -5 0 -11 -35 -15 -77 -7 -83 -36 -370 -60 -593 -20 -185 -44
-453 -46 -520 -1 -30 -8 -72 -16 -94 -19 -56 -17 -123 5 -135 9 -6 13 -11 7
-11 -16 0 -199 62 -209 71 -6 5 -16 9 -23 9 -16 0 -238 108 -298 145 -22 13
-53 32 -70 41 -66 37 -263 193 -357 283 -130 124 -306 344 -367 459 -23 44 -3
21 33 -38 55 -89 145 -207 231 -304 78 -88 238 -236 255 -236 5 0 14 17 19 38
5 20 32 123 59 227 l49 190 -183 9 c-105 5 -184 13 -184 18 0 6 55 62 123 126
178 169 1057 1045 1057 1054 0 12 -61 78 -72 78 -6 0 -61 47 -123 105 -62 58
-117 105 -123 105 -5 0 -25 17 -44 38 -18 20 -46 47 -62 60 -16 12 -69 59
-119 105 -49 45 -94 84 -100 86 -6 2 -56 44 -112 94 -55 49 -111 96 -125 105
-54 35 -210 171 -210 183 0 13 111 99 127 99 18 0 41 -17 188 -142 63 -54 118
-98 122 -98 3 0 27 -20 52 -43 139 -132 189 -177 197 -177 5 0 118 -110 249
-245 135 -137 248 -245 258 -245 51 0 24 36 -204 272 -129 132 -252 261 -274
285 -92 102 -452 455 -472 463 -13 5 -23 14 -23 19 0 4 36 38 79 73 l80 65
-67 85 c-96 122 -200 236 -252 275 l-45 35 -69 -74 c-141 -149 -281 -341 -355
-486 -12 -24 -24 -42 -27 -39 -3 2 18 43 45 91 226 390 564 705 970 902 40 19
75 33 77 31 2 -2 -14 -12 -35 -22 -36 -16 -41 -22 -47 -64 -7 -45 1 -412 13
-614 l6 -108 149 -142 c82 -78 155 -144 163 -147 8 -3 65 -53 129 -112 63 -60
119 -108 125 -108 6 0 11 -6 12 -12 0 -7 20 -30 44 -51 l43 -38 6 53 c3 29 10
130 16 223 6 94 12 195 15 225 3 30 10 132 15 225 6 94 20 298 30 454 11 156
20 313 20 349 l0 65 -71 -7 c-39 -4 -78 -10 -88 -12 -14 -5 -14 -4 0 5 42 28
460 41 629 20z m-2285 -1259 c-14 -27 -15 -35 -3 -46 18 -18 443 -228 676
-334 100 -45 182 -86 182 -89 0 -4 -73 -33 -162 -65 -236 -84 -675 -259 -805
-321 l-112 -53 -4 -59 c-2 -32 -2 -4 0 62 3 66 4 132 4 146 -1 15 6 62 15 105
8 44 17 95 19 114 7 67 92 360 104 360 4 0 7 9 8 19 2 29 83 204 90 197 3 -2
-3 -19 -12 -36z m-215 -1085 c0 -29 -9 -27 256 -56 l191 -21 97 21 c52 12 115
21 138 21 61 0 148 -12 148 -19 0 -4 -89 -70 -197 -146 -109 -76 -273 -192
-365 -257 -92 -65 -170 -118 -174 -118 -3 0 -4 6 -1 14 3 8 2 16 -3 18 -8 3
-54 163 -65 228 -24 146 -34 220 -33 245 0 17 -2 45 -6 63 -5 21 -4 32 3 32 6
0 11 -11 11 -25z"/>
</g>
</svg>
