<svg width="30" height="30" viewBox="0 0 30 30" fill="none" xmlns="http://www.w3.org/2000/svg">
<circle cx="15" cy="15" r="15" fill="#D9D9D9"/>
<circle cx="15" cy="15" r="14.5" stroke="#2E2D2D" stroke-opacity="0.5"/>
<path d="M14.06 13.93H14.525C15.92 13.93 17.225 14.485 17.225 16.09C17.225 17.335 16.22 18.19 15.005 18.19C13.73 18.19 13.07 17.695 12.71 16.69L11.57 17.035C12.155 18.535 13.355 19.18 14.915 19.18C16.76 19.18 18.305 18.085 18.305 16.12C18.305 14.785 17.48 13.675 16.265 13.42L16.22 13.39C17.195 13.075 18.02 12.115 18.02 10.96C18.02 9.19 16.61 8.2 14.945 8.2C13.655 8.2 12.635 8.74 12.005 9.88L12.95 10.36C13.385 9.61 14.09 9.19 14.975 9.19C16.205 9.19 16.94 9.85 16.94 10.99C16.94 12.4 15.875 12.94 14.615 12.94H14.06V13.93Z" fill="#2E2D2D" fill-opacity="0.5"/>
</svg>
