<svg width="16" height="13" viewBox="0 0 16 13" fill="none" xmlns="http://www.w3.org/2000/svg">
<path d="M3.64645 12.3536C3.84171 12.5488 4.15829 12.5488 4.35355 12.3536L7.53553 9.17157C7.7308 8.97631 7.7308 8.65973 7.53553 8.46447C7.34027 8.2692 7.02369 8.2692 6.82843 8.46447L4 11.2929L1.17157 8.46447C0.976311 8.2692 0.659728 8.2692 0.464466 8.46447C0.269204 8.65973 0.269204 8.97631 0.464466 9.17157L3.64645 12.3536ZM3.5 1L3.5 12H4.5L4.5 1H3.5Z" fill="white"/>
<path d="M11.6464 0.646446C11.8417 0.451184 12.1583 0.451184 12.3536 0.646446L15.5355 3.82843C15.7308 4.02369 15.7308 4.34027 15.5355 4.53553C15.3403 4.7308 15.0237 4.7308 14.8284 4.53553L12 1.70711L9.17157 4.53553C8.97631 4.7308 8.65973 4.7308 8.46447 4.53553C8.2692 4.34027 8.2692 4.02369 8.46447 3.82843L11.6464 0.646446ZM11.5 12V1H12.5V12H11.5Z" fill="white"/>
</svg>
